<svg xmlns="http://www.w3.org/2000/svg" width="1200" height="390" viewBox="0 0 1200 390" role="img" aria-labelledby="t d">
<title id="t">État et disposition : illustration fictive</title><desc id="d">Une courbe de l’évaluation momentanée fluctue après différents événements autour d’une tendance habituelle qui peut elle-même évoluer. Ce ne sont pas des données.</desc>
<g fill="none"><path d="M160 55V285H1120" stroke="#123b5d" stroke-width="3"/><path d="M175 170C470 174 780 153 1090 157" stroke="#e8a23a" stroke-width="5" stroke-dasharray="13 10"/><path d="M175 175C200 155 225 150 280 200S355 258 415 232S480 145 550 151S650 180 720 149S805 95 850 120S1000 167 1090 139" stroke="#007c83" stroke-width="5"/></g>
<g font-family="Arial,sans-serif" font-size="25" fill="#123b5d"><text x="15" y="33">Évaluation de soi</text><text x="20" y="85">Plus</text><text x="20" y="116">favorable</text><text x="14" y="249">Moins</text><text x="14" y="280">favorable</text><text x="270" y="320">Exposé</text><text x="480" y="320">Retour reçu</text><text x="790" y="320">Nouvelle tentative</text><text x="650" y="50" fill="#007c83">Évaluation momentanée</text><text x="820" y="218" fill="#95610a">Tendance habituelle</text><text x="600" y="375" text-anchor="middle" fill="#566573">Trajectoire fictive · Les réactions et les tendances varient selon les personnes</text></g></svg>
