<svg xmlns="http://www.w3.org/2000/svg" width="1300" height="380" viewBox="0 0 1300 380"><rect width="1300" height="380" fill="white"/><g transform="translate(45,20)" font-family="Arial" fill="#123b5d"><text x="175" y="25" text-anchor="middle" font-size="25">Positive</text><path d="M30 55V290H355" stroke="#566573" fill="none" stroke-width="2"/><text x="190" y="330" text-anchor="middle" font-size="22">Variable X</text><text x="4" y="175" transform="rotate(-90 4 175)" text-anchor="middle" font-size="22">Variable Y</text><circle cx="55" cy="245" r="6" fill="#007c83"/><circle cx="84" cy="215" r="6" fill="#007c83"/><circle cx="113" cy="227" r="6" fill="#007c83"/><circle cx="142" cy="190" r="6" fill="#007c83"/><circle cx="171" cy="175" r="6" fill="#007c83"/><circle cx="200" cy="160" r="6" fill="#007c83"/><circle cx="229" cy="165" r="6" fill="#007c83"/><circle cx="258" cy="125" r="6" fill="#007c83"/><circle cx="287" cy="117" r="6" fill="#007c83"/><circle cx="316" cy="95" r="6" fill="#007c83"/></g><g transform="translate(475,20)" font-family="Arial" fill="#123b5d"><text x="175" y="25" text-anchor="middle" font-size="25">Négative</text><path d="M30 55V290H355" stroke="#566573" fill="none" stroke-width="2"/><text x="190" y="330" text-anchor="middle" font-size="22">Variable X</text><text x="4" y="175" transform="rotate(-90 4 175)" text-anchor="middle" font-size="22">Variable Y</text><circle cx="55" cy="95" r="6" fill="#007c83"/><circle cx="84" cy="117" r="6" fill="#007c83"/><circle cx="113" cy="125" r="6" fill="#007c83"/><circle cx="142" cy="165" r="6" fill="#007c83"/><circle cx="171" cy="160" r="6" fill="#007c83"/><circle cx="200" cy="175" r="6" fill="#007c83"/><circle cx="229" cy="190" r="6" fill="#007c83"/><circle cx="258" cy="227" r="6" fill="#007c83"/><circle cx="287" cy="215" r="6" fill="#007c83"/><circle cx="316" cy="245" r="6" fill="#007c83"/></g><g transform="translate(905,20)" font-family="Arial" fill="#123b5d"><text x="175" y="25" text-anchor="middle" font-size="25">Sans tendance linéaire nette</text><path d="M30 55V290H355" stroke="#566573" fill="none" stroke-width="2"/><text x="190" y="330" text-anchor="middle" font-size="22">Variable X</text><text x="4" y="175" transform="rotate(-90 4 175)" text-anchor="middle" font-size="22">Variable Y</text><circle cx="55" cy="180" r="6" fill="#007c83"/><circle cx="84" cy="110" r="6" fill="#007c83"/><circle cx="113" cy="240" r="6" fill="#007c83"/><circle cx="142" cy="145" r="6" fill="#007c83"/><circle cx="171" cy="205" r="6" fill="#007c83"/><circle cx="200" cy="205" r="6" fill="#007c83"/><circle cx="229" cy="145" r="6" fill="#007c83"/><circle cx="258" cy="240" r="6" fill="#007c83"/><circle cx="287" cy="110" r="6" fill="#007c83"/><circle cx="316" cy="180" r="6" fill="#007c83"/></g></svg>